<svg width="467" height="214" viewBox="0 0 467 214" fill="none" xmlns="http://www.w3.org/2000/svg">
<path d="M0.0201715 187.355H3.42916L9.31924 208.838H9.39993L15.754 187.355H19.1831L25.4968 208.838H25.5775L31.5684 187.355H34.7757L27.171 213.236H23.8427L17.4484 191.309H17.3677L10.933 213.236H7.56432L0 187.355H0.0201715Z" fill="white"/>
<path d="M45.5273 187.35H61.7856V190.194H48.5934V198.303H60.9182V201.148H48.5934V210.366H62.4512V213.21H45.5273V187.33V187.35Z" fill="white"/>
<path d="M86.7773 191.933C86.273 191.106 85.5872 190.501 84.74 190.117C83.8928 189.734 83.0052 189.553 82.0773 189.553C81.3915 189.553 80.7258 189.633 80.0602 189.815C79.3945 189.976 78.8095 190.238 78.2851 190.581C77.7606 190.924 77.337 191.368 77.0344 191.933C76.7117 192.498 76.5503 193.143 76.5503 193.91C76.5503 194.495 76.6512 195.019 76.8327 195.463C77.0143 195.907 77.3169 196.33 77.7203 196.693C78.1439 197.056 78.6885 197.399 79.3945 197.722C80.1005 198.045 80.9679 198.347 81.9966 198.67C83.0052 198.993 83.9735 199.336 84.9013 199.699C85.8292 200.062 86.6764 200.526 87.3824 201.091C88.1086 201.655 88.6734 202.361 89.097 203.188C89.5206 204.036 89.7425 205.085 89.7425 206.355C89.7425 207.626 89.4803 208.776 88.976 209.724C88.4717 210.672 87.7859 211.459 86.9387 212.084C86.0915 212.709 85.1232 213.173 84.034 213.476C82.9447 213.779 81.8151 213.94 80.625 213.94C79.8786 213.94 79.1121 213.879 78.3658 213.738C77.6194 213.597 76.8932 213.395 76.1872 213.113C75.4812 212.83 74.8358 212.467 74.2306 212.024C73.6255 211.58 73.101 211.015 72.6572 210.37L75.2795 208.211C75.8443 209.159 76.6108 209.885 77.6194 210.37C78.628 210.854 79.6769 211.096 80.8065 211.096C81.4722 211.096 82.1177 210.995 82.8035 210.813C83.4692 210.612 84.0743 210.329 84.6189 209.946C85.1636 209.563 85.5872 209.099 85.9301 208.534C86.273 207.969 86.4344 207.324 86.4344 206.597C86.4344 205.791 86.2932 205.145 86.0309 204.641C85.7687 204.137 85.3451 203.713 84.7803 203.35C84.2155 202.987 83.5095 202.664 82.6623 202.361C81.8151 202.079 80.8065 201.736 79.6567 201.333C78.7289 201.05 77.8817 200.707 77.095 200.324C76.3083 199.941 75.6426 199.477 75.0576 198.932C74.4928 198.388 74.0289 197.722 73.7061 196.955C73.3834 196.189 73.222 195.261 73.222 194.192C73.222 192.941 73.4641 191.872 73.9482 190.944C74.4323 190.016 75.098 189.25 75.925 188.625C76.752 187.999 77.7001 187.535 78.749 187.213C79.7979 186.89 80.8872 186.729 82.037 186.729C83.5095 186.729 84.8408 186.95 86.0309 187.414C87.2412 187.858 88.3103 188.645 89.2584 189.774L86.7369 191.973L86.7773 191.933Z" fill="white"/>
<path d="M119.497 190.2H110.944V213.215H107.878V190.2H99.3252V187.355H119.497V190.2Z" fill="white"/>
<path d="M130.43 187.355H135.009L143.783 207.648H143.864L152.699 187.355H157.157V213.236H154.091V191.531H154.01L144.731 213.236H142.876L133.597 191.531H133.516V213.236H130.45V187.355H130.43Z" fill="white"/>
<path d="M170.871 187.355H173.937V213.236H170.871V187.355Z" fill="white"/>
<path d="M187.693 187.355H191.566L206.554 208.838H206.634V187.355H209.7V213.236H205.828L190.84 191.753H190.759V213.236H187.693V187.355Z" fill="white"/>
<path d="M235.703 191.933C235.199 191.106 234.513 190.501 233.666 190.117C232.819 189.734 231.931 189.553 231.003 189.553C230.317 189.553 229.652 189.633 228.986 189.815C228.32 189.976 227.735 190.238 227.211 190.581C226.686 190.924 226.263 191.368 225.96 191.933C225.637 192.498 225.476 193.143 225.476 193.91C225.476 194.495 225.577 195.019 225.759 195.463C225.94 195.907 226.243 196.33 226.646 196.693C227.07 197.056 227.614 197.399 228.32 197.722C229.026 198.045 229.894 198.347 230.922 198.67C231.931 198.993 232.899 199.336 233.827 199.699C234.755 200.062 235.602 200.526 236.308 201.091C237.034 201.655 237.599 202.361 238.023 203.188C238.446 204.036 238.668 205.085 238.668 206.355C238.668 207.626 238.406 208.776 237.902 209.724C237.397 210.672 236.712 211.459 235.864 212.084C235.017 212.709 234.049 213.173 232.96 213.476C231.87 213.779 230.741 213.94 229.551 213.94C228.804 213.94 228.038 213.879 227.292 213.738C226.545 213.597 225.819 213.395 225.113 213.113C224.407 212.83 223.762 212.467 223.156 212.024C222.551 211.58 222.027 211.015 221.583 210.37L224.205 208.211C224.77 209.159 225.537 209.885 226.545 210.37C227.554 210.854 228.603 211.096 229.732 211.096C230.398 211.096 231.043 210.995 231.729 210.813C232.395 210.612 233 210.329 233.545 209.946C234.089 209.563 234.513 209.099 234.856 208.534C235.199 207.969 235.36 207.324 235.36 206.597C235.36 205.791 235.219 205.145 234.957 204.641C234.695 204.137 234.271 203.713 233.706 203.35C233.141 202.987 232.435 202.664 231.588 202.361C230.741 202.079 229.732 201.736 228.583 201.333C227.655 201.05 226.807 200.707 226.021 200.324C225.234 199.941 224.568 199.477 223.983 198.932C223.419 198.388 222.955 197.722 222.632 196.955C222.309 196.189 222.148 195.261 222.148 194.192C222.148 192.941 222.39 191.872 222.874 190.944C223.358 190.016 224.024 189.25 224.851 188.625C225.678 187.999 226.626 187.535 227.675 187.213C228.724 186.89 229.813 186.729 230.963 186.729C232.435 186.729 233.767 186.95 234.957 187.414C236.167 187.858 237.236 188.645 238.184 189.774L235.663 191.973L235.703 191.933Z" fill="white"/>
<path d="M268.423 190.2H259.871V213.215H256.805V190.2H248.252V187.355H268.423V190.2Z" fill="white"/>
<path d="M279.355 187.35H295.614V190.194H282.422V198.303H294.746V201.148H282.422V210.366H296.279V213.21H279.355V187.33V187.35Z" fill="white"/>
<path d="M308.321 187.355H314.937C316.188 187.355 317.418 187.436 318.649 187.577C319.879 187.719 320.989 188.041 321.957 188.525C322.925 189.01 323.732 189.736 324.337 190.664C324.942 191.612 325.245 192.882 325.245 194.476C325.245 196.372 324.68 197.905 323.53 199.075C322.381 200.245 320.807 200.991 318.77 201.314L326.112 213.236H322.34L315.32 201.617H311.367V213.236H308.301V187.355H308.321ZM311.407 198.752H314.151C314.998 198.752 315.885 198.732 316.793 198.672C317.701 198.631 318.548 198.47 319.314 198.188C320.081 197.925 320.706 197.502 321.211 196.917C321.715 196.352 321.957 195.525 321.957 194.456C321.957 193.528 321.775 192.782 321.412 192.217C321.049 191.652 320.565 191.228 319.96 190.926C319.355 190.623 318.689 190.422 317.943 190.321C317.196 190.22 316.45 190.179 315.704 190.179H311.387V198.732L311.407 198.752Z" fill="white"/>
<path d="M372.81 190.2H364.257V213.215H361.191V190.2H352.639V187.355H372.81V190.2Z" fill="white"/>
<path d="M383.724 187.35H399.982V190.194H386.79V198.303H399.115V201.148H386.79V210.366H400.648V213.21H383.724V187.33V187.35Z" fill="white"/>
<path d="M421.119 187.355H424.003L434.997 213.236H431.406L428.784 206.881H415.854L413.191 213.236H409.722L421.119 187.355ZM422.51 191.309H422.43L417.064 204.037H427.634L422.51 191.309Z" fill="white"/>
<path d="M445.752 187.355H448.818V198.53H449.261L461.021 187.355H465.439L452.65 199.156L466.064 213.236H461.566L449.241 200.084H448.797V213.236H445.731V187.355H445.752Z" fill="white"/>
<path d="M205.122 143.319L152.737 21.3415C147.755 9.78318 146.726 5.76905 142.692 3.7519C139.807 2.29955 141.38 3.20727 139.363 1.91629C138.435 1.33132 137.83 0 140.957 0C157.175 0 164.114 0.121029 179.706 0.0806861C182.45 0.0806861 182.712 0.867375 182.329 1.65406C181.844 2.68281 179.343 3.14676 178.355 4.25619C176.721 6.11197 175.672 7.20123 181.058 20.0908C186.746 33.6663 214.744 97.9529 219.424 109.511L205.122 143.319Z" fill="white"/>
<path d="M259.747 143.319L207.362 21.3415C202.38 9.78318 201.351 5.76905 197.317 3.7519C194.432 2.29955 196.005 3.20727 193.988 1.91629C193.06 1.33132 192.455 0 195.582 0C211.8 0 218.739 0.121029 234.331 0.0806861C237.075 0.0806861 237.337 0.867375 236.954 1.65406C236.469 2.68281 233.968 3.14676 232.98 4.25619C231.346 6.11197 230.297 7.20123 235.683 20.0908C241.371 33.6663 269.369 97.9529 274.049 109.511L259.747 143.319Z" fill="white"/>
<path d="M275.079 53.314C282.24 33.1022 287.908 20.1924 289.179 16.4607C291.559 9.50152 281.03 5.00327 273.546 4.33761C269.088 3.61144 263.642 3.22818 261.161 3.22818C259.608 3.22818 258.034 3.00629 258.034 1.69514C258.034 0.827769 259.285 0.162109 263.642 0.162109C279.234 0.162109 326.456 0.424339 342.674 0.424339C345.8 0.424339 347.656 0.868112 347.656 1.95737C347.656 3.04664 342.492 3.67195 340.939 3.81315C336.804 4.17624 329.078 4.51916 324.419 6.45562C319.537 8.47277 317.722 12.144 315.321 16.3397C311.509 21.1001 287.646 79.1336 287.646 79.1336L275.059 53.2939L275.079 53.314Z" fill="white"/>
</svg>
