<svg xmlns="http://www.w3.org/2000/svg" xmlns:xlink="http://www.w3.org/1999/xlink" width="1584" zoomAndPan="magnify" viewBox="0 0 1188 296.999993" height="396" preserveAspectRatio="xMidYMid meet" version="1.0"><defs><clipPath id="59f76affcf"><path d="M 19.140625 74.023438 L 168.089844 74.023438 L 168.089844 222.96875 L 19.140625 222.96875 Z M 19.140625 74.023438 " clip-rule="nonzero"/></clipPath><clipPath id="759580b5c1"><path d="M 1126 128 L 1168.890625 128 L 1168.890625 191 L 1126 191 Z M 1126 128 " clip-rule="nonzero"/></clipPath></defs><g clip-path="url(#59f76affcf)"><path fill="#494b4a" d="M 93.617188 74.023438 C 92.394531 74.023438 91.179688 74.050781 89.960938 74.113281 C 88.742188 74.171875 87.527344 74.261719 86.316406 74.378906 C 85.101562 74.5 83.894531 74.648438 82.6875 74.828125 C 81.480469 75.007812 80.28125 75.214844 79.085938 75.453125 C 77.890625 75.691406 76.703125 75.957031 75.519531 76.253906 C 74.335938 76.550781 73.164062 76.875 71.996094 77.230469 C 70.832031 77.582031 69.671875 77.964844 68.527344 78.375 C 67.378906 78.785156 66.242188 79.222656 65.117188 79.691406 C 63.988281 80.15625 62.875 80.652344 61.773438 81.171875 C 60.671875 81.695312 59.582031 82.242188 58.507812 82.816406 C 57.433594 83.390625 56.375 83.992188 55.328125 84.617188 C 54.28125 85.242188 53.253906 85.894531 52.242188 86.574219 C 51.226562 87.25 50.230469 87.953125 49.25 88.679688 C 48.273438 89.402344 47.3125 90.152344 46.371094 90.925781 C 45.429688 91.699219 44.503906 92.496094 43.601562 93.3125 C 42.699219 94.132812 41.816406 94.972656 40.953125 95.835938 C 40.09375 96.695312 39.253906 97.578125 38.433594 98.480469 C 37.617188 99.386719 36.820312 100.308594 36.046875 101.25 C 35.273438 102.191406 34.523438 103.152344 33.796875 104.132812 C 33.070312 105.109375 32.371094 106.105469 31.691406 107.121094 C 31.015625 108.132812 30.363281 109.164062 29.738281 110.207031 C 29.109375 111.253906 28.511719 112.3125 27.9375 113.390625 C 27.363281 114.464844 26.8125 115.550781 26.292969 116.652344 C 25.769531 117.753906 25.277344 118.871094 24.8125 119.996094 C 24.34375 121.121094 23.90625 122.257812 23.496094 123.40625 C 23.085938 124.554688 22.703125 125.710938 22.347656 126.875 C 21.996094 128.042969 21.671875 129.21875 21.375 130.398438 C 21.078125 131.582031 20.8125 132.769531 20.574219 133.964844 C 20.335938 135.160156 20.128906 136.363281 19.949219 137.566406 C 19.769531 138.773438 19.621094 139.984375 19.5 141.195312 C 19.382812 142.410156 19.292969 143.625 19.230469 144.839844 C 19.171875 146.058594 19.140625 147.277344 19.140625 148.496094 C 19.140625 149.714844 19.171875 150.933594 19.230469 152.148438 C 19.292969 153.367188 19.382812 154.582031 19.5 155.792969 C 19.621094 157.007812 19.769531 158.21875 19.949219 159.421875 C 20.128906 160.628906 20.335938 161.828125 20.574219 163.023438 C 20.8125 164.21875 21.078125 165.410156 21.375 166.589844 C 21.671875 167.773438 21.996094 168.945312 22.347656 170.113281 C 22.703125 171.28125 23.085938 172.4375 23.496094 173.585938 C 23.90625 174.730469 24.34375 175.867188 24.8125 176.996094 C 25.277344 178.121094 25.769531 179.234375 26.292969 180.335938 C 26.8125 181.4375 27.363281 182.527344 27.9375 183.601562 C 28.511719 184.675781 29.109375 185.738281 29.738281 186.78125 C 30.363281 187.828125 31.015625 188.855469 31.691406 189.871094 C 32.371094 190.882812 33.070312 191.878906 33.796875 192.859375 C 34.523438 193.835938 35.273438 194.796875 36.046875 195.742188 C 36.820312 196.683594 37.617188 197.605469 38.433594 198.507812 C 39.253906 199.410156 40.09375 200.292969 40.953125 201.15625 C 41.816406 202.015625 42.699219 202.855469 43.601562 203.675781 C 44.503906 204.496094 45.429688 205.289062 46.371094 206.0625 C 47.3125 206.835938 48.273438 207.585938 49.25 208.3125 C 50.230469 209.039062 51.226562 209.738281 52.242188 210.417969 C 53.253906 211.09375 54.28125 211.746094 55.328125 212.371094 C 56.375 213 57.433594 213.601562 58.507812 214.175781 C 59.582031 214.75 60.671875 215.296875 61.773438 215.816406 C 62.875 216.339844 63.988281 216.832031 65.117188 217.300781 C 66.242188 217.765625 67.378906 218.203125 68.527344 218.613281 C 69.671875 219.023438 70.832031 219.40625 71.996094 219.761719 C 73.164062 220.113281 74.335938 220.441406 75.519531 220.734375 C 76.703125 221.03125 77.890625 221.300781 79.085938 221.535156 C 80.28125 221.773438 81.480469 221.984375 82.6875 222.160156 C 83.894531 222.339844 85.101562 222.488281 86.316406 222.609375 C 87.527344 222.730469 88.742188 222.820312 89.960938 222.878906 C 91.179688 222.9375 92.394531 222.96875 93.613281 222.96875 C 94.835938 222.96875 96.050781 222.9375 97.269531 222.878906 C 98.488281 222.820312 99.703125 222.730469 100.914062 222.609375 C 102.128906 222.488281 103.335938 222.339844 104.542969 222.160156 C 105.75 221.984375 106.949219 221.773438 108.144531 221.535156 C 109.339844 221.300781 110.527344 221.03125 111.710938 220.734375 C 112.894531 220.441406 114.066406 220.113281 115.234375 219.761719 C 116.398438 219.40625 117.558594 219.023438 118.703125 218.613281 C 119.851562 218.203125 120.988281 217.765625 122.113281 217.300781 C 123.242188 216.832031 124.355469 216.339844 125.457031 215.816406 C 126.558594 215.296875 127.648438 214.75 128.722656 214.175781 C 129.796875 213.601562 130.855469 213 131.902344 212.371094 C 132.949219 211.746094 133.976562 211.09375 134.988281 210.417969 C 136.003906 209.738281 137 209.039062 137.980469 208.3125 C 138.957031 207.585938 139.917969 206.835938 140.859375 206.0625 C 141.800781 205.289062 142.726562 204.496094 143.628906 203.675781 C 144.53125 202.855469 145.414062 202.015625 146.277344 201.15625 C 147.136719 200.292969 147.976562 199.410156 148.796875 198.507812 C 149.613281 197.605469 150.410156 196.683594 151.183594 195.738281 C 151.957031 194.796875 152.707031 193.835938 153.433594 192.859375 C 154.160156 191.878906 154.859375 190.882812 155.539062 189.871094 C 156.214844 188.855469 156.867188 187.828125 157.492188 186.78125 C 158.121094 185.738281 158.71875 184.675781 159.292969 183.601562 C 159.867188 182.527344 160.417969 181.4375 160.9375 180.335938 C 161.460938 179.234375 161.953125 178.121094 162.417969 176.996094 C 162.886719 175.867188 163.324219 174.730469 163.734375 173.585938 C 164.144531 172.4375 164.527344 171.28125 164.882812 170.113281 C 165.234375 168.945312 165.558594 167.773438 165.855469 166.589844 C 166.152344 165.410156 166.417969 164.21875 166.65625 163.023438 C 166.894531 161.828125 167.101562 160.628906 167.28125 159.421875 C 167.460938 158.21875 167.609375 157.007812 167.730469 155.792969 C 167.847656 154.582031 167.9375 153.367188 168 152.148438 C 168.058594 150.933594 168.089844 149.714844 168.089844 148.496094 C 168.089844 147.277344 168.058594 146.058594 168 144.839844 C 167.9375 143.625 167.847656 142.410156 167.730469 141.195312 C 167.609375 139.984375 167.460938 138.773438 167.28125 137.566406 C 167.101562 136.363281 166.894531 135.160156 166.65625 133.964844 C 166.417969 132.769531 166.152344 131.582031 165.855469 130.398438 C 165.558594 129.21875 165.234375 128.042969 164.882812 126.875 C 164.527344 125.710938 164.144531 124.554688 163.734375 123.40625 C 163.324219 122.257812 162.886719 121.121094 162.417969 119.996094 C 161.953125 118.871094 161.460938 117.753906 160.9375 116.652344 C 160.417969 115.550781 159.867188 114.464844 159.292969 113.390625 C 158.71875 112.3125 158.121094 111.253906 157.492188 110.207031 C 156.867188 109.164062 156.214844 108.132812 155.539062 107.121094 C 154.859375 106.105469 154.160156 105.109375 153.433594 104.132812 C 152.707031 103.152344 151.957031 102.191406 151.183594 101.25 C 150.410156 100.308594 149.613281 99.386719 148.796875 98.480469 C 147.976562 97.578125 147.136719 96.695312 146.277344 95.835938 C 145.414062 94.972656 144.53125 94.132812 143.628906 93.3125 C 142.726562 92.496094 141.800781 91.699219 140.859375 90.925781 C 139.917969 90.152344 138.957031 89.402344 137.980469 88.679688 C 137 87.953125 136.003906 87.25 134.988281 86.574219 C 133.976562 85.894531 132.949219 85.242188 131.902344 84.617188 C 130.855469 83.992188 129.796875 83.390625 128.722656 82.816406 C 127.648438 82.242188 126.558594 81.695312 125.457031 81.171875 C 124.355469 80.652344 123.242188 80.15625 122.113281 79.691406 C 120.988281 79.222656 119.851562 78.785156 118.703125 78.375 C 117.558594 77.964844 116.398438 77.582031 115.234375 77.230469 C 114.066406 76.875 112.894531 76.550781 111.710938 76.253906 C 110.527344 75.957031 109.339844 75.691406 108.144531 75.453125 C 106.949219 75.214844 105.75 75.007812 104.542969 74.828125 C 103.335938 74.648438 102.128906 74.5 100.914062 74.378906 C 99.703125 74.261719 98.488281 74.171875 97.269531 74.113281 C 96.050781 74.050781 94.835938 74.023438 93.617188 74.023438 M 93.617188 213.859375 C 92.546875 213.859375 91.476562 213.832031 90.410156 213.777344 C 89.339844 213.726562 88.273438 213.648438 87.210938 213.542969 C 86.144531 213.4375 85.085938 213.304688 84.027344 213.148438 C 82.96875 212.992188 81.914062 212.808594 80.867188 212.601562 C 79.816406 212.390625 78.773438 212.15625 77.738281 211.898438 C 76.699219 211.636719 75.667969 211.351562 74.648438 211.039062 C 73.625 210.730469 72.609375 210.394531 71.601562 210.035156 C 70.59375 209.675781 69.597656 209.289062 68.609375 208.878906 C 67.621094 208.46875 66.644531 208.035156 65.675781 207.578125 C 64.710938 207.121094 63.753906 206.640625 62.8125 206.136719 C 61.867188 205.632812 60.9375 205.105469 60.023438 204.554688 C 59.105469 204.003906 58.203125 203.433594 57.3125 202.839844 C 56.421875 202.246094 55.550781 201.628906 54.691406 200.992188 C 53.832031 200.355469 52.988281 199.695312 52.160156 199.019531 C 51.335938 198.339844 50.527344 197.640625 49.734375 196.921875 C 48.941406 196.207031 48.167969 195.46875 47.410156 194.710938 C 46.65625 193.957031 45.917969 193.179688 45.199219 192.386719 C 44.480469 191.597656 43.78125 190.785156 43.105469 189.960938 C 42.425781 189.132812 41.769531 188.289062 41.132812 187.429688 C 40.496094 186.570312 39.878906 185.699219 39.285156 184.808594 C 38.691406 183.917969 38.117188 183.015625 37.570312 182.097656 C 37.019531 181.179688 36.492188 180.25 35.988281 179.308594 C 35.484375 178.363281 35.003906 177.410156 34.546875 176.441406 C 34.089844 175.476562 33.65625 174.5 33.246094 173.511719 C 32.839844 172.523438 32.453125 171.523438 32.09375 170.515625 C 31.734375 169.511719 31.398438 168.496094 31.085938 167.472656 C 30.777344 166.449219 30.492188 165.417969 30.230469 164.378906 C 29.972656 163.34375 29.738281 162.300781 29.53125 161.25 C 29.320312 160.203125 29.136719 159.148438 28.980469 158.089844 C 28.824219 157.03125 28.695312 155.972656 28.589844 154.90625 C 28.484375 153.84375 28.40625 152.777344 28.351562 151.707031 C 28.300781 150.640625 28.273438 149.570312 28.273438 148.503906 C 28.273438 147.433594 28.300781 146.363281 28.355469 145.296875 C 28.40625 144.226562 28.484375 143.160156 28.589844 142.097656 C 28.695312 141.03125 28.824219 139.972656 28.984375 138.914062 C 29.140625 137.855469 29.324219 136.804688 29.53125 135.753906 C 29.738281 134.707031 29.972656 133.660156 30.234375 132.625 C 30.492188 131.585938 30.777344 130.558594 31.089844 129.535156 C 31.398438 128.511719 31.734375 127.496094 32.097656 126.488281 C 32.457031 125.480469 32.839844 124.484375 33.25 123.496094 C 33.660156 122.507812 34.09375 121.53125 34.550781 120.5625 C 35.007812 119.597656 35.488281 118.640625 35.992188 117.699219 C 36.496094 116.753906 37.023438 115.824219 37.574219 114.90625 C 38.121094 113.992188 38.695312 113.085938 39.289062 112.199219 C 39.882812 111.308594 40.5 110.433594 41.136719 109.574219 C 41.773438 108.71875 42.429688 107.875 43.109375 107.046875 C 43.789062 106.21875 44.484375 105.410156 45.203125 104.617188 C 45.921875 103.828125 46.660156 103.050781 47.414062 102.296875 C 48.171875 101.539062 48.945312 100.800781 49.738281 100.085938 C 50.53125 99.367188 51.339844 98.667969 52.167969 97.988281 C 52.996094 97.3125 53.835938 96.652344 54.695312 96.015625 C 55.554688 95.378906 56.429688 94.761719 57.316406 94.167969 C 58.207031 93.574219 59.109375 93.003906 60.027344 92.453125 C 60.945312 91.902344 61.875 91.375 62.820312 90.871094 C 63.761719 90.367188 64.71875 89.886719 65.683594 89.429688 C 66.648438 88.972656 67.628906 88.539062 68.617188 88.128906 C 69.605469 87.722656 70.601562 87.335938 71.609375 86.976562 C 72.613281 86.617188 73.628906 86.28125 74.652344 85.96875 C 75.675781 85.660156 76.707031 85.375 77.746094 85.113281 C 78.78125 84.855469 79.824219 84.621094 80.875 84.410156 C 81.921875 84.203125 82.976562 84.019531 84.035156 83.863281 C 85.09375 83.707031 86.152344 83.574219 87.21875 83.46875 C 88.28125 83.363281 89.347656 83.285156 90.417969 83.234375 C 91.484375 83.179688 92.554688 83.15625 93.621094 83.15625 C 94.691406 83.15625 95.761719 83.179688 96.828125 83.234375 C 97.898438 83.285156 98.964844 83.363281 100.027344 83.46875 C 101.09375 83.574219 102.152344 83.703125 103.210938 83.863281 C 104.269531 84.019531 105.324219 84.199219 106.371094 84.410156 C 107.421875 84.617188 108.464844 84.851562 109.5 85.113281 C 110.539062 85.371094 111.570312 85.65625 112.59375 85.96875 C 113.617188 86.277344 114.628906 86.613281 115.636719 86.972656 C 116.644531 87.332031 117.640625 87.71875 118.628906 88.128906 C 119.617188 88.535156 120.597656 88.96875 121.5625 89.425781 C 122.53125 89.882812 123.484375 90.363281 124.425781 90.867188 C 125.371094 91.371094 126.300781 91.898438 127.21875 92.449219 C 128.136719 93 129.039062 93.570312 129.929688 94.164062 C 130.816406 94.757812 131.691406 95.375 132.550781 96.011719 C 133.410156 96.648438 134.253906 97.304688 135.078125 97.984375 C 135.90625 98.664062 136.714844 99.359375 137.507812 100.078125 C 138.300781 100.796875 139.074219 101.535156 139.832031 102.289062 C 140.589844 103.046875 141.324219 103.820312 142.042969 104.613281 C 142.761719 105.40625 143.460938 106.214844 144.140625 107.042969 C 144.816406 107.867188 145.476562 108.710938 146.113281 109.570312 C 146.75 110.429688 147.367188 111.304688 147.960938 112.191406 C 148.554688 113.082031 149.125 113.984375 149.675781 114.902344 C 150.226562 115.820312 150.753906 116.75 151.257812 117.691406 C 151.761719 118.636719 152.242188 119.589844 152.699219 120.558594 C 153.15625 121.523438 153.589844 122.5 154 123.488281 C 154.410156 124.476562 154.792969 125.472656 155.15625 126.480469 C 155.515625 127.488281 155.851562 128.503906 156.160156 129.527344 C 156.472656 130.550781 156.757812 131.578125 157.015625 132.617188 C 157.277344 133.65625 157.511719 134.699219 157.71875 135.746094 C 157.929688 136.796875 158.113281 137.847656 158.269531 138.90625 C 158.425781 139.964844 158.558594 141.027344 158.664062 142.089844 C 158.765625 143.15625 158.847656 144.21875 158.898438 145.289062 C 158.953125 146.355469 158.976562 147.425781 158.976562 148.496094 C 158.976562 149.566406 158.953125 150.632812 158.898438 151.703125 C 158.847656 152.769531 158.769531 153.835938 158.664062 154.902344 C 158.5625 155.96875 158.429688 157.027344 158.273438 158.085938 C 158.117188 159.144531 157.933594 160.199219 157.726562 161.25 C 157.515625 162.296875 157.285156 163.339844 157.023438 164.378906 C 156.765625 165.417969 156.480469 166.449219 156.167969 167.472656 C 155.859375 168.496094 155.523438 169.511719 155.164062 170.519531 C 154.800781 171.527344 154.417969 172.523438 154.007812 173.511719 C 153.597656 174.5 153.167969 175.476562 152.707031 176.445312 C 152.25 177.414062 151.769531 178.367188 151.265625 179.3125 C 150.761719 180.253906 150.234375 181.183594 149.6875 182.101562 C 149.136719 183.019531 148.5625 183.925781 147.96875 184.8125 C 147.375 185.703125 146.757812 186.578125 146.121094 187.4375 C 145.484375 188.296875 144.828125 189.140625 144.148438 189.96875 C 143.46875 190.792969 142.769531 191.605469 142.050781 192.394531 C 141.335938 193.1875 140.597656 193.964844 139.839844 194.71875 C 139.082031 195.476562 138.308594 196.214844 137.515625 196.933594 C 136.722656 197.652344 135.914062 198.347656 135.085938 199.027344 C 134.261719 199.707031 133.417969 200.363281 132.558594 201 C 131.699219 201.640625 130.824219 202.253906 129.933594 202.847656 C 129.042969 203.445312 128.140625 204.015625 127.222656 204.566406 C 126.304688 205.117188 125.375 205.640625 124.429688 206.148438 C 123.488281 206.652344 122.53125 207.132812 121.566406 207.589844 C 120.597656 208.046875 119.621094 208.480469 118.632812 208.886719 C 117.644531 209.296875 116.644531 209.683594 115.636719 210.042969 C 114.632812 210.402344 113.617188 210.738281 112.589844 211.046875 C 111.566406 211.359375 110.535156 211.644531 109.5 211.902344 C 108.460938 212.164062 107.417969 212.398438 106.367188 212.605469 C 105.320312 212.8125 104.265625 212.996094 103.207031 213.152344 C 102.148438 213.308594 101.085938 213.441406 100.023438 213.546875 C 98.957031 213.648438 97.890625 213.726562 96.824219 213.78125 C 95.753906 213.832031 94.683594 213.859375 93.617188 213.859375 " fill-opacity="1" fill-rule="nonzero"/></g><path fill="#494b4a" d="M 93.625 101.765625 C 92.109375 101.765625 90.597656 101.839844 89.085938 101.992188 C 87.578125 102.140625 86.078125 102.363281 84.589844 102.65625 C 83.101562 102.953125 81.632812 103.320312 80.179688 103.761719 C 78.726562 104.203125 77.300781 104.710938 75.898438 105.292969 C 74.5 105.875 73.128906 106.523438 71.789062 107.238281 C 70.453125 107.953125 69.152344 108.730469 67.890625 109.574219 C 66.628906 110.417969 65.414062 111.320312 64.238281 112.28125 C 63.066406 113.242188 61.945312 114.261719 60.871094 115.335938 C 59.796875 116.40625 58.78125 117.53125 57.820312 118.703125 C 56.855469 119.875 55.953125 121.09375 55.109375 122.351562 C 54.265625 123.613281 53.488281 124.914062 52.773438 126.253906 C 52.058594 127.589844 51.410156 128.960938 50.828125 130.363281 C 50.25 131.761719 49.738281 133.191406 49.296875 134.640625 C 48.855469 136.09375 48.488281 137.5625 48.191406 139.050781 C 47.898438 140.539062 47.675781 142.039062 47.527344 143.546875 C 47.375 145.058594 47.300781 146.570312 47.300781 148.089844 C 47.300781 149.605469 47.375 151.117188 47.523438 152.628906 C 47.671875 154.136719 47.894531 155.636719 48.191406 157.125 C 48.488281 158.613281 48.855469 160.082031 49.296875 161.535156 C 49.734375 162.988281 50.246094 164.414062 50.828125 165.816406 C 51.40625 167.214844 52.054688 168.585938 52.769531 169.925781 C 53.484375 171.261719 54.261719 172.5625 55.105469 173.824219 C 55.949219 175.085938 56.851562 176.300781 57.8125 177.476562 C 58.777344 178.648438 59.792969 179.769531 60.867188 180.84375 C 61.9375 181.917969 63.0625 182.933594 64.234375 183.898438 C 65.40625 184.859375 66.625 185.761719 67.886719 186.605469 C 69.144531 187.449219 70.445312 188.226562 71.785156 188.941406 C 73.121094 189.660156 74.492188 190.304688 75.894531 190.886719 C 77.292969 191.46875 78.722656 191.980469 80.171875 192.417969 C 81.625 192.859375 83.09375 193.226562 84.582031 193.523438 C 86.070312 193.820312 87.570312 194.042969 89.078125 194.191406 C 90.589844 194.339844 92.101562 194.414062 93.617188 194.414062 C 95.136719 194.417969 96.648438 194.34375 98.160156 194.195312 C 99.667969 194.046875 101.167969 193.824219 102.65625 193.527344 C 104.144531 193.230469 105.613281 192.863281 107.066406 192.421875 C 108.519531 191.984375 109.945312 191.472656 111.347656 190.894531 C 112.746094 190.3125 114.117188 189.664062 115.457031 188.949219 C 116.792969 188.234375 118.09375 187.457031 119.355469 186.613281 C 120.617188 185.769531 121.835938 184.867188 123.007812 183.90625 C 124.179688 182.945312 125.304688 181.925781 126.375 180.855469 C 127.449219 179.78125 128.46875 178.660156 129.429688 177.488281 C 130.390625 176.3125 131.296875 175.097656 132.136719 173.835938 C 132.980469 172.574219 133.761719 171.277344 134.476562 169.9375 C 135.191406 168.601562 135.839844 167.230469 136.421875 165.828125 C 137 164.425781 137.511719 163 137.953125 161.550781 C 138.394531 160.097656 138.761719 158.628906 139.058594 157.140625 C 139.355469 155.652344 139.578125 154.152344 139.726562 152.644531 C 139.875 151.132812 139.949219 149.621094 139.949219 148.101562 C 139.949219 146.585938 139.878906 145.070312 139.730469 143.5625 C 139.582031 142.050781 139.359375 140.550781 139.0625 139.0625 C 138.765625 137.574219 138.398438 136.105469 137.957031 134.652344 C 137.519531 133.199219 137.007812 131.773438 136.429688 130.371094 C 135.847656 128.96875 135.199219 127.601562 134.484375 126.261719 C 133.769531 124.921875 132.992188 123.621094 132.148438 122.359375 C 131.304688 121.097656 130.402344 119.882812 129.441406 118.707031 C 128.476562 117.535156 127.460938 116.414062 126.386719 115.339844 C 125.3125 114.265625 124.191406 113.25 123.019531 112.285156 C 121.84375 111.324219 120.628906 110.417969 119.367188 109.578125 C 118.105469 108.734375 116.804688 107.953125 115.464844 107.238281 C 114.128906 106.523438 112.757812 105.875 111.355469 105.292969 C 109.953125 104.714844 108.527344 104.203125 107.074219 103.761719 C 105.625 103.320312 104.152344 102.953125 102.664062 102.65625 C 101.175781 102.363281 99.679688 102.140625 98.167969 101.992188 C 96.65625 101.839844 95.144531 101.765625 93.625 101.765625 M 93.625 185.550781 C 92.414062 185.53125 91.203125 185.457031 89.996094 185.320312 C 88.792969 185.183594 87.597656 184.988281 86.410156 184.734375 C 85.222656 184.480469 84.050781 184.171875 82.894531 183.804688 C 81.738281 183.4375 80.601562 183.015625 79.484375 182.539062 C 78.371094 182.0625 77.28125 181.53125 76.214844 180.949219 C 75.152344 180.367188 74.117188 179.734375 73.117188 179.050781 C 72.113281 178.367188 71.144531 177.636719 70.214844 176.859375 C 69.28125 176.082031 68.390625 175.257812 67.539062 174.394531 C 66.6875 173.53125 65.878906 172.628906 65.117188 171.6875 C 64.351562 170.742188 63.632812 169.765625 62.964844 168.753906 C 62.296875 167.742188 61.679688 166.699219 61.109375 165.625 C 60.542969 164.554688 60.027344 163.457031 59.566406 162.335938 C 59.105469 161.210938 58.699219 160.070312 58.347656 158.910156 C 58 157.746094 57.707031 156.570312 57.46875 155.378906 C 57.234375 154.191406 57.058594 152.992188 56.9375 151.785156 C 56.816406 150.578125 56.757812 149.367188 56.753906 148.152344 C 56.753906 146.9375 56.8125 145.726562 56.925781 144.519531 C 57.042969 143.3125 57.214844 142.113281 57.449219 140.921875 C 57.679688 139.730469 57.96875 138.554688 58.316406 137.390625 C 58.664062 136.230469 59.066406 135.085938 59.523438 133.960938 C 59.980469 132.839844 60.492188 131.738281 61.058594 130.664062 C 61.621094 129.589844 62.238281 128.546875 62.902344 127.53125 C 63.570312 126.519531 64.285156 125.539062 65.046875 124.59375 C 65.804688 123.648438 66.613281 122.742188 67.460938 121.875 C 68.308594 121.011719 69.199219 120.1875 70.128906 119.40625 C 71.058594 118.625 72.023438 117.894531 73.023438 117.207031 C 74.023438 116.519531 75.054688 115.882812 76.117188 115.296875 C 77.179688 114.710938 78.269531 114.179688 79.382812 113.699219 C 80.496094 113.21875 81.632812 112.792969 82.789062 112.421875 C 83.941406 112.050781 85.113281 111.738281 86.300781 111.480469 C 87.484375 111.226562 88.679688 111.027344 89.886719 110.886719 C 91.09375 110.746094 92.300781 110.664062 93.515625 110.640625 L 93.515625 150.824219 L 130.953125 150.824219 C 130.867188 151.992188 130.730469 153.152344 130.539062 154.304688 C 130.34375 155.460938 130.097656 156.601562 129.796875 157.730469 C 129.5 158.863281 129.148438 159.976562 128.742188 161.074219 C 128.339844 162.171875 127.882812 163.246094 127.378906 164.300781 C 126.875 165.355469 126.320312 166.386719 125.71875 167.386719 C 125.117188 168.390625 124.46875 169.363281 123.777344 170.304688 C 123.085938 171.25 122.347656 172.15625 121.570312 173.027344 C 120.792969 173.902344 119.976562 174.738281 119.121094 175.535156 C 118.265625 176.332031 117.371094 177.085938 116.445312 177.800781 C 115.519531 178.511719 114.5625 179.179688 113.570312 179.804688 C 112.582031 180.425781 111.566406 181.003906 110.523438 181.53125 C 109.476562 182.058594 108.414062 182.539062 107.324219 182.964844 C 106.234375 183.394531 105.128906 183.769531 104.007812 184.09375 C 102.882812 184.417969 101.746094 184.691406 100.597656 184.90625 C 99.449219 185.125 98.292969 185.289062 97.128906 185.398438 C 95.960938 185.507812 94.796875 185.5625 93.625 185.5625 " fill-opacity="1" fill-rule="nonzero"/><path fill="#494b4a" d="M 101.695312 207.335938 L 85.546875 207.335938 C 85.070312 207.355469 84.605469 207.28125 84.160156 207.113281 C 83.710938 206.949219 83.3125 206.703125 82.960938 206.375 C 82.613281 206.050781 82.335938 205.671875 82.136719 205.238281 C 81.941406 204.800781 81.832031 204.347656 81.816406 203.867188 C 81.796875 203.390625 81.871094 202.929688 82.039062 202.480469 C 82.207031 202.03125 82.453125 201.632812 82.78125 201.285156 C 83.105469 200.933594 83.484375 200.660156 83.921875 200.464844 C 84.355469 200.265625 84.8125 200.160156 85.289062 200.140625 C 85.375 200.132812 85.460938 200.132812 85.546875 200.140625 L 101.695312 200.140625 C 102.171875 200.125 102.632812 200.203125 103.082031 200.367188 C 103.527344 200.535156 103.925781 200.78125 104.273438 201.109375 C 104.621094 201.433594 104.894531 201.8125 105.09375 202.25 C 105.292969 202.683594 105.398438 203.140625 105.414062 203.617188 C 105.429688 204.09375 105.355469 204.554688 105.1875 205 C 105.019531 205.449219 104.773438 205.847656 104.449219 206.195312 C 104.121094 206.542969 103.742188 206.816406 103.308594 207.015625 C 102.875 207.210938 102.417969 207.320312 101.941406 207.335938 L 101.695312 207.335938 " fill-opacity="1" fill-rule="nonzero"/><path fill="#494b4a" d="M 235.042969 173.5625 C 230.917969 173.5625 228.855469 171.492188 228.855469 167.355469 L 228.855469 115.527344 C 228.855469 111.402344 230.917969 109.332031 235.042969 109.332031 L 267.539062 109.332031 C 270.6875 109.332031 272.277344 110.84375 272.277344 113.890625 C 272.277344 116.941406 270.6875 118.621094 267.539062 118.621094 L 240.0625 118.621094 L 240.0625 136.359375 L 265.566406 136.359375 C 268.734375 136.359375 270.316406 137.886719 270.316406 140.941406 C 270.316406 144.035156 268.738281 145.59375 265.578125 145.59375 L 240.0625 145.59375 L 240.0625 164.261719 L 267.574219 164.261719 C 270.722656 164.261719 272.3125 165.808594 272.3125 168.910156 C 272.3125 172.015625 270.722656 173.5625 267.574219 173.5625 Z M 235.042969 173.5625 " fill-opacity="1" fill-rule="nonzero"/><path fill="#494b4a" d="M 302.457031 174.457031 C 298.136719 174.566406 294.070312 173.609375 290.253906 171.589844 C 288.542969 170.65625 287.007812 169.492188 285.640625 168.105469 C 284.277344 166.714844 283.144531 165.15625 282.242188 163.433594 C 280.25 159.539062 279.304688 155.410156 279.40625 151.039062 C 279.292969 146.710938 280.238281 142.628906 282.242188 138.789062 C 283.152344 137.101562 284.292969 135.582031 285.65625 134.230469 C 287.023438 132.878906 288.554688 131.753906 290.253906 130.855469 C 294.085938 128.90625 298.15625 127.984375 302.457031 128.089844 C 304.660156 128.109375 306.835938 128.382812 308.976562 128.90625 C 311.324219 129.460938 313.523438 130.367188 315.578125 131.628906 C 316.125 131.921875 316.585938 132.316406 316.960938 132.8125 C 317.335938 133.304688 317.589844 133.859375 317.71875 134.464844 C 317.945312 135.582031 317.792969 136.640625 317.257812 137.648438 C 316.769531 138.625 316.019531 139.324219 315.015625 139.753906 C 314.445312 139.957031 313.855469 140.015625 313.253906 139.933594 C 312.652344 139.855469 312.097656 139.640625 311.597656 139.296875 C 309.109375 137.785156 306.410156 136.992188 303.496094 136.917969 C 299.554688 136.917969 296.496094 138.152344 294.34375 140.617188 C 292.191406 143.082031 291.105469 146.578125 291.105469 151.140625 C 291.105469 155.699219 292.226562 159.175781 294.34375 161.75 C 294.90625 162.402344 295.539062 162.980469 296.234375 163.484375 C 296.933594 163.992188 297.679688 164.414062 298.472656 164.746094 C 299.265625 165.082031 300.085938 165.324219 300.933594 165.46875 C 301.785156 165.617188 302.636719 165.667969 303.496094 165.617188 C 306.390625 165.566406 309.09375 164.820312 311.597656 163.375 C 312.089844 163.03125 312.628906 162.816406 313.222656 162.734375 C 313.816406 162.652344 314.398438 162.714844 314.960938 162.917969 C 315.953125 163.34375 316.648438 164.058594 317.058594 165.058594 C 317.492188 166.089844 317.585938 167.15625 317.335938 168.25 C 317.191406 168.835938 316.9375 169.371094 316.574219 169.855469 C 316.210938 170.339844 315.765625 170.730469 315.242188 171.03125 C 313.253906 172.238281 311.128906 173.117188 308.867188 173.664062 C 306.761719 174.183594 304.625 174.449219 302.457031 174.457031 Z M 302.457031 174.457031 " fill-opacity="1" fill-rule="nonzero"/><path fill="#494b4a" d="M 344.273438 174.457031 C 340.023438 174.558594 336.015625 173.617188 332.25 171.636719 C 330.5625 170.707031 329.042969 169.558594 327.691406 168.183594 C 326.339844 166.808594 325.214844 165.269531 324.316406 163.566406 C 322.332031 159.699219 321.390625 155.589844 321.492188 151.242188 C 321.378906 146.890625 322.320312 142.78125 324.316406 138.914062 C 325.222656 137.222656 326.351562 135.691406 327.703125 134.324219 C 329.050781 132.960938 330.570312 131.816406 332.25 130.890625 C 334.121094 129.964844 336.070312 129.265625 338.101562 128.789062 C 340.132812 128.316406 342.191406 128.078125 344.273438 128.078125 C 346.359375 128.078125 348.417969 128.316406 350.449219 128.789062 C 352.480469 129.265625 354.429688 129.964844 356.300781 130.890625 C 357.980469 131.816406 359.492188 132.964844 360.839844 134.328125 C 362.191406 135.695312 363.316406 137.222656 364.222656 138.914062 C 366.21875 142.78125 367.160156 146.890625 367.046875 151.242188 C 367.152344 155.589844 366.210938 159.699219 364.222656 163.566406 C 363.324219 165.269531 362.199219 166.808594 360.851562 168.179688 C 359.503906 169.554688 357.984375 170.707031 356.300781 171.636719 C 352.535156 173.613281 348.527344 174.554688 344.273438 174.457031 Z M 344.273438 165.796875 C 345.054688 165.824219 345.824219 165.765625 346.585938 165.617188 C 347.351562 165.46875 348.089844 165.238281 348.796875 164.917969 C 349.507812 164.601562 350.171875 164.207031 350.792969 163.738281 C 351.414062 163.265625 351.96875 162.730469 352.464844 162.132812 C 354.542969 159.667969 355.578125 156.039062 355.570312 151.25 C 355.5625 146.464844 354.527344 142.832031 352.464844 140.359375 C 351.945312 139.792969 351.371094 139.285156 350.742188 138.835938 C 350.117188 138.390625 349.449219 138.011719 348.746094 137.703125 C 348.039062 137.390625 347.308594 137.15625 346.554688 137 C 345.800781 136.84375 345.039062 136.761719 344.269531 136.761719 C 343.5 136.761719 342.738281 136.84375 341.984375 137 C 341.230469 137.160156 340.5 137.390625 339.792969 137.703125 C 339.089844 138.011719 338.421875 138.390625 337.796875 138.835938 C 337.167969 139.285156 336.59375 139.792969 336.074219 140.359375 C 334.011719 142.757812 332.980469 146.386719 332.980469 151.25 C 332.980469 156.113281 334.011719 159.742188 336.074219 162.132812 C 336.570312 162.734375 337.128906 163.269531 337.746094 163.742188 C 338.367188 164.214844 339.035156 164.609375 339.746094 164.925781 C 340.457031 165.246094 341.195312 165.480469 341.960938 165.628906 C 342.722656 165.777344 343.496094 165.835938 344.273438 165.808594 Z M 344.273438 165.796875 " fill-opacity="1" fill-rule="nonzero"/><path fill="#494b4a" d="M 382.261719 174.289062 C 378.527344 174.289062 376.660156 172.34375 376.660156 168.453125 L 376.660156 134.015625 C 376.660156 130.199219 378.527344 128.289062 382.261719 128.28125 C 385.996094 128.273438 387.847656 130.183594 387.808594 134.015625 L 387.808594 135.832031 C 389.144531 133.410156 391.011719 131.511719 393.414062 130.140625 C 395.964844 128.722656 398.699219 128.042969 401.613281 128.101562 C 408.292969 128.101562 412.667969 131.015625 414.738281 136.839844 C 416.101562 134.105469 418.105469 131.964844 420.742188 130.421875 C 423.515625 128.8125 426.503906 128.039062 429.707031 128.101562 C 439.726562 128.101562 444.734375 134.203125 444.734375 146.410156 L 444.734375 168.453125 C 444.734375 172.339844 442.828125 174.289062 438.996094 174.289062 C 435.164062 174.289062 433.394531 172.339844 433.394531 168.453125 L 433.394531 146.859375 C 433.394531 143.496094 432.832031 140.964844 431.714844 139.394531 C 430.59375 137.828125 428.6875 137.03125 426.019531 137.03125 C 424.667969 136.96875 423.375 137.210938 422.140625 137.765625 C 420.902344 138.316406 419.859375 139.117188 419.007812 140.167969 C 417.304688 142.265625 416.449219 145.15625 416.449219 148.863281 L 416.449219 168.453125 C 416.449219 172.335938 414.582031 174.28125 410.847656 174.289062 C 407.113281 174.296875 405.199219 172.351562 405.109375 168.453125 L 405.109375 146.859375 C 405.109375 143.496094 404.550781 140.964844 403.417969 139.394531 C 402.285156 137.828125 400.4375 137.03125 397.816406 137.03125 C 396.464844 136.96875 395.171875 137.210938 393.933594 137.765625 C 392.699219 138.316406 391.65625 139.117188 390.800781 140.167969 C 389.097656 142.265625 388.246094 145.15625 388.246094 148.863281 L 388.246094 168.453125 C 388.066406 172.34375 386.074219 174.289062 382.261719 174.289062 Z M 382.261719 174.289062 " fill-opacity="1" fill-rule="nonzero"/><path fill="#494b4a" d="M 462.148438 174.289062 C 458.414062 174.289062 456.546875 172.34375 456.546875 168.453125 L 456.546875 134.015625 C 456.546875 130.195312 458.40625 128.28125 462.148438 128.28125 C 465.890625 128.28125 467.75 130.195312 467.75 134.015625 L 467.75 135.832031 C 469.082031 133.40625 470.949219 131.507812 473.355469 130.140625 C 475.902344 128.722656 478.636719 128.042969 481.554688 128.101562 C 488.234375 128.101562 492.605469 131.015625 494.667969 136.839844 C 496.039062 134.109375 498.046875 131.96875 500.683594 130.421875 C 503.457031 128.8125 506.445312 128.039062 509.648438 128.101562 C 519.667969 128.101562 524.675781 134.203125 524.675781 146.410156 L 524.675781 168.453125 C 524.675781 172.335938 522.761719 174.28125 518.9375 174.289062 C 515.113281 174.296875 513.246094 172.351562 513.335938 168.453125 L 513.335938 146.859375 C 513.335938 143.496094 512.773438 140.964844 511.65625 139.394531 C 510.535156 137.828125 508.628906 137.03125 505.949219 137.03125 C 504.597656 136.96875 503.304688 137.214844 502.070312 137.769531 C 500.835938 138.320312 499.792969 139.121094 498.9375 140.167969 C 497.242188 142.265625 496.390625 145.15625 496.390625 148.863281 L 496.390625 168.453125 C 496.390625 172.335938 494.523438 174.28125 490.789062 174.289062 C 486.957031 174.289062 485.050781 172.339844 485.050781 168.453125 L 485.050781 146.859375 C 485.050781 143.496094 484.480469 140.964844 483.359375 139.394531 C 482.238281 137.828125 480.367188 137.03125 477.757812 137.03125 C 476.40625 136.96875 475.113281 137.214844 473.878906 137.769531 C 472.644531 138.320312 471.597656 139.121094 470.742188 140.167969 C 469.039062 142.265625 468.199219 145.15625 468.199219 148.863281 L 468.199219 168.453125 C 467.996094 172.34375 465.980469 174.289062 462.148438 174.289062 Z M 462.148438 174.289062 " fill-opacity="1" fill-rule="nonzero"/><path fill="#494b4a" d="M 558.167969 174.457031 C 553.597656 174.574219 549.253906 173.632812 545.136719 171.636719 C 543.371094 170.742188 541.769531 169.613281 540.335938 168.25 C 538.898438 166.886719 537.691406 165.34375 536.710938 163.621094 C 534.625 159.777344 533.636719 155.667969 533.753906 151.296875 C 533.660156 147.007812 534.613281 142.964844 536.621094 139.171875 C 538.503906 135.71875 541.144531 133.003906 544.542969 131.027344 C 548.113281 128.996094 551.953125 128.019531 556.0625 128.101562 C 562.367188 128.101562 567.363281 130.101562 571.042969 134.105469 C 574.726562 138.109375 576.566406 143.578125 576.558594 150.511719 C 576.558594 152.753906 575.101562 153.875 572.1875 153.875 L 544.6875 153.875 C 545.546875 161.828125 550.085938 165.808594 558.304688 165.808594 C 560.101562 165.785156 561.878906 165.59375 563.636719 165.226562 C 565.613281 164.828125 567.480469 164.140625 569.242188 163.164062 C 569.820312 162.75 570.457031 162.46875 571.152344 162.320312 C 571.847656 162.171875 572.542969 162.164062 573.242188 162.300781 C 573.753906 162.4375 574.214844 162.679688 574.625 163.023438 C 575.03125 163.367188 575.347656 163.777344 575.570312 164.261719 C 576.042969 165.316406 576.101562 166.398438 575.75 167.5 C 575.53125 168.15625 575.195312 168.75 574.746094 169.277344 C 574.296875 169.800781 573.765625 170.226562 573.152344 170.546875 C 570.875 171.945312 568.429688 172.933594 565.824219 173.515625 C 563.304688 174.113281 560.753906 174.425781 558.167969 174.457031 Z M 556.523438 135.820312 C 555.015625 135.757812 553.558594 136 552.152344 136.539062 C 550.742188 137.078125 549.5 137.871094 548.421875 138.925781 C 547.335938 140.066406 546.476562 141.359375 545.835938 142.796875 C 545.195312 144.234375 544.8125 145.738281 544.6875 147.308594 L 567.101562 147.308594 C 566.855469 143.570312 565.835938 140.734375 564.042969 138.789062 C 563.066406 137.769531 561.921875 137.003906 560.605469 136.484375 C 559.292969 135.96875 557.929688 135.75 556.523438 135.832031 Z M 556.523438 135.820312 " fill-opacity="1" fill-rule="nonzero"/><path fill="#494b4a" d="M 591.417969 174.289062 C 587.53125 174.289062 585.589844 172.34375 585.589844 168.453125 L 585.589844 134.015625 C 585.589844 130.199219 587.457031 128.289062 591.191406 128.28125 C 594.890625 128.28125 596.796875 130.195312 596.796875 134.015625 L 596.796875 136.839844 C 598.984375 131.613281 603.65625 128.699219 610.8125 128.101562 C 613.425781 127.796875 614.882812 129.222656 615.195312 132.582031 C 615.507812 135.945312 613.917969 137.59375 610.457031 137.960938 L 608.449219 138.140625 C 600.980469 138.886719 597.242188 142.714844 597.242188 149.625 L 597.242188 168.453125 C 597.183594 172.34375 595.242188 174.289062 591.417969 174.289062 Z M 591.417969 174.289062 " fill-opacity="1" fill-rule="nonzero"/><path fill="#494b4a" d="M 641.160156 174.457031 C 636.824219 174.578125 632.738281 173.625 628.898438 171.601562 C 627.191406 170.664062 625.65625 169.5 624.292969 168.113281 C 622.929688 166.722656 621.792969 165.167969 620.886719 163.445312 C 618.902344 159.550781 617.960938 155.417969 618.0625 151.050781 C 617.949219 146.722656 618.890625 142.640625 620.886719 138.800781 C 621.804688 137.113281 622.945312 135.59375 624.308594 134.246094 C 625.671875 132.894531 627.203125 131.769531 628.898438 130.867188 C 632.738281 128.917969 636.808594 127.992188 641.113281 128.101562 C 643.316406 128.121094 645.484375 128.394531 647.625 128.917969 C 649.976562 129.46875 652.179688 130.378906 654.234375 131.640625 C 654.78125 131.933594 655.242188 132.328125 655.617188 132.824219 C 655.992188 133.320312 656.246094 133.871094 656.375 134.476562 C 656.605469 135.59375 656.453125 136.652344 655.917969 137.660156 C 655.421875 138.628906 654.675781 139.332031 653.675781 139.765625 C 653.109375 139.960938 652.53125 140.015625 651.941406 139.9375 C 651.347656 139.855469 650.804688 139.644531 650.3125 139.304688 C 647.820312 137.796875 645.113281 137.007812 642.199219 136.929688 C 638.257812 136.929688 635.199219 138.164062 633.046875 140.628906 C 630.894531 143.09375 629.808594 146.589844 629.808594 151.152344 C 629.808594 155.710938 630.929688 159.183594 633.046875 161.761719 C 633.609375 162.414062 634.242188 162.992188 634.9375 163.496094 C 635.636719 164.003906 636.382812 164.421875 637.175781 164.757812 C 637.96875 165.09375 638.789062 165.335938 639.636719 165.480469 C 640.488281 165.628906 641.339844 165.675781 642.199219 165.628906 C 645.097656 165.574219 647.800781 164.828125 650.3125 163.386719 C 650.800781 163.039062 651.34375 162.824219 651.9375 162.742188 C 652.53125 162.664062 653.113281 162.722656 653.675781 162.929688 C 654.667969 163.351562 655.367188 164.066406 655.769531 165.066406 C 656.207031 166.101562 656.300781 167.167969 656.050781 168.261719 C 655.910156 168.851562 655.65625 169.386719 655.292969 169.867188 C 654.925781 170.351562 654.480469 170.742188 653.957031 171.039062 C 651.96875 172.25 649.839844 173.128906 647.578125 173.675781 C 645.472656 174.195312 643.332031 174.457031 641.160156 174.457031 Z M 641.160156 174.457031 " fill-opacity="1" fill-rule="nonzero"/><path fill="#494b4a" d="M 684.601562 174.457031 C 680.035156 174.574219 675.695312 173.632812 671.582031 171.636719 C 669.816406 170.742188 668.214844 169.613281 666.777344 168.25 C 665.34375 166.886719 664.136719 165.34375 663.15625 163.621094 C 661.066406 159.777344 660.082031 155.667969 660.195312 151.296875 C 660.097656 147.003906 661.054688 142.964844 663.066406 139.171875 C 663.988281 137.476562 665.121094 135.9375 666.46875 134.554688 C 667.8125 133.171875 669.320312 131.996094 670.988281 131.027344 C 674.558594 128.984375 678.398438 127.996094 682.507812 128.066406 C 688.828125 128.066406 693.824219 130.070312 697.5 134.074219 C 701.175781 138.078125 703.015625 143.546875 703.015625 150.476562 C 703.015625 152.71875 701.546875 153.839844 698.632812 153.839844 L 671.121094 153.839844 C 671.972656 161.796875 676.53125 165.773438 684.792969 165.773438 C 686.585938 165.753906 688.359375 165.558594 690.117188 165.191406 C 692.09375 164.796875 693.960938 164.109375 695.71875 163.128906 C 696.300781 162.71875 696.941406 162.4375 697.636719 162.285156 C 698.332031 162.136719 699.03125 162.128906 699.730469 162.265625 C 700.246094 162.40625 700.703125 162.644531 701.109375 162.988281 C 701.515625 163.332031 701.828125 163.746094 702.050781 164.226562 C 702.527344 165.28125 702.589844 166.363281 702.242188 167.464844 C 701.78125 168.828125 700.914062 169.84375 699.640625 170.515625 C 697.363281 171.910156 694.921875 172.898438 692.3125 173.484375 C 689.777344 174.09375 687.210938 174.421875 684.601562 174.457031 Z M 682.96875 135.820312 C 681.457031 135.757812 679.996094 135.996094 678.582031 136.539062 C 677.171875 137.078125 675.925781 137.878906 674.84375 138.9375 C 673.757812 140.078125 672.894531 141.367188 672.253906 142.804688 C 671.609375 144.246094 671.226562 145.75 671.101562 147.320312 L 693.511719 147.320312 C 693.265625 143.609375 692.257812 140.773438 690.464844 138.800781 C 689.492188 137.785156 688.347656 137.015625 687.039062 136.496094 C 685.730469 135.980469 684.375 135.757812 682.96875 135.832031 Z M 682.96875 135.820312 " fill-opacity="1" fill-rule="nonzero"/><path fill="#494b4a" d="M 727.242188 174.457031 C 717.101562 174.457031 712.03125 168.777344 712.023438 157.414062 L 712.023438 114.339844 C 712.023438 110.515625 713.890625 108.601562 717.625 108.601562 C 721.457031 108.601562 723.363281 110.519531 723.363281 114.339844 L 723.363281 156.921875 C 723.363281 162.382812 725.640625 165.113281 730.199219 165.113281 C 730.691406 165.113281 731.140625 165.113281 731.566406 165.113281 C 731.996094 165.089844 732.421875 165.046875 732.84375 164.980469 C 733.175781 164.878906 733.503906 164.894531 733.824219 165.023438 C 734.148438 165.148438 734.394531 165.363281 734.570312 165.664062 C 734.96875 166.800781 735.121094 167.96875 735.027344 169.167969 C 735.105469 170.449219 734.800781 171.632812 734.121094 172.722656 C 733.753906 173.179688 733.308594 173.546875 732.785156 173.816406 C 732.261719 174.085938 731.707031 174.234375 731.117188 174.269531 C 729.832031 174.425781 728.539062 174.488281 727.242188 174.457031 Z M 727.242188 174.457031 " fill-opacity="1" fill-rule="nonzero"/><path fill="#494b4a" d="M 755.757812 174.457031 C 752.738281 174.511719 749.867188 173.886719 747.140625 172.585938 C 744.710938 171.441406 742.738281 169.753906 741.226562 167.535156 C 739.761719 165.359375 739.046875 162.960938 739.085938 160.339844 C 739.003906 158.917969 739.179688 157.53125 739.621094 156.179688 C 740.058594 154.824219 740.730469 153.597656 741.628906 152.496094 C 743.332031 150.574219 746.097656 149.199219 749.921875 148.359375 C 755.007812 147.394531 760.140625 146.96875 765.316406 147.082031 L 768.511719 147.082031 L 768.511719 145.222656 C 768.511719 142.191406 767.84375 140.003906 766.503906 138.667969 C 765.167969 137.332031 762.925781 136.660156 759.78125 136.660156 C 757.863281 136.679688 755.964844 136.890625 754.089844 137.300781 C 751.863281 137.804688 749.726562 138.550781 747.667969 139.542969 C 747.113281 139.867188 746.515625 140.050781 745.875 140.09375 C 745.234375 140.132812 744.617188 140.027344 744.027344 139.777344 C 743.539062 139.511719 743.125 139.160156 742.785156 138.722656 C 742.445312 138.285156 742.210938 137.792969 742.078125 137.253906 C 741.75 136.113281 741.808594 134.992188 742.257812 133.894531 C 742.515625 133.289062 742.886719 132.765625 743.371094 132.320312 C 743.855469 131.875 744.410156 131.546875 745.035156 131.339844 C 747.640625 130.246094 750.332031 129.425781 753.105469 128.886719 C 755.433594 128.421875 757.785156 128.175781 760.164062 128.15625 C 766.664062 128.15625 771.488281 129.652344 774.640625 132.640625 C 777.792969 135.628906 779.375 140.289062 779.378906 146.625 L 779.378906 168.453125 C 779.378906 172.335938 777.617188 174.28125 774.089844 174.289062 C 770.566406 174.296875 768.777344 172.351562 768.722656 168.453125 L 768.722656 166.445312 C 768.234375 167.660156 767.566406 168.769531 766.726562 169.777344 C 765.886719 170.78125 764.914062 171.632812 763.804688 172.328125 C 761.332031 173.832031 758.652344 174.542969 755.757812 174.457031 Z M 758.125 166.613281 C 759.523438 166.652344 760.871094 166.398438 762.164062 165.855469 C 763.457031 165.316406 764.582031 164.535156 765.542969 163.511719 C 766.542969 162.457031 767.300781 161.246094 767.816406 159.886719 C 768.332031 158.527344 768.5625 157.121094 768.511719 155.667969 L 768.511719 153.695312 L 765.40625 153.695312 C 759.699219 153.695312 755.738281 154.136719 753.519531 155.015625 C 753.011719 155.175781 752.546875 155.410156 752.121094 155.722656 C 751.691406 156.03125 751.328125 156.40625 751.023438 156.835938 C 750.71875 157.269531 750.492188 157.742188 750.34375 158.246094 C 750.195312 158.753906 750.132812 159.273438 750.15625 159.800781 C 750.128906 160.734375 750.296875 161.628906 750.664062 162.488281 C 751.027344 163.34375 751.558594 164.085938 752.253906 164.710938 C 753.070312 165.394531 753.988281 165.898438 755.003906 166.226562 C 756.019531 166.558594 757.058594 166.6875 758.125 166.613281 Z M 758.125 166.613281 " fill-opacity="1" fill-rule="nonzero"/><path fill="#494b4a" d="M 816.605469 174.457031 C 813.503906 174.515625 810.589844 173.800781 807.867188 172.316406 C 805.367188 170.964844 803.449219 169.035156 802.117188 166.523438 L 802.117188 168.441406 C 802.117188 172.324219 800.25 174.273438 796.515625 174.28125 C 792.738281 174.28125 790.910156 172.328125 790.910156 168.441406 L 790.910156 114.339844 C 790.910156 110.519531 792.78125 108.601562 796.515625 108.601562 C 800.246094 108.601562 802.25 110.519531 802.25 114.339844 L 802.25 135.574219 C 803.671875 133.222656 805.601562 131.414062 808.035156 130.140625 C 810.699219 128.734375 813.539062 128.054688 816.550781 128.101562 C 818.367188 128.058594 820.152344 128.277344 821.90625 128.753906 C 823.65625 129.234375 825.304688 129.953125 826.847656 130.914062 C 829.886719 132.921875 832.164062 135.582031 833.683594 138.890625 C 835.429688 142.816406 836.25 146.925781 836.136719 151.21875 C 836.238281 155.507812 835.417969 159.617188 833.683594 163.542969 C 833.328125 164.367188 832.914062 165.164062 832.4375 165.925781 C 831.964844 166.6875 831.4375 167.410156 830.855469 168.09375 C 830.273438 168.78125 829.644531 169.417969 828.96875 170.007812 C 828.289062 170.597656 827.574219 171.132812 826.816406 171.617188 C 826.0625 172.101562 825.273438 172.527344 824.453125 172.894531 C 823.632812 173.257812 822.789062 173.5625 821.925781 173.804688 C 821.058594 174.042969 820.179688 174.21875 819.289062 174.328125 C 818.398438 174.4375 817.503906 174.480469 816.605469 174.457031 Z M 813.421875 165.796875 C 814.203125 165.828125 814.976562 165.769531 815.742188 165.621094 C 816.507812 165.476562 817.246094 165.242188 817.960938 164.925781 C 818.671875 164.605469 819.339844 164.210938 819.960938 163.742188 C 820.582031 163.269531 821.140625 162.734375 821.636719 162.132812 C 823.699219 159.667969 824.734375 156.039062 824.742188 151.25 C 824.75 146.464844 823.714844 142.828125 821.636719 140.347656 C 821.117188 139.78125 820.542969 139.273438 819.914062 138.828125 C 819.289062 138.378906 818.621094 138 817.917969 137.691406 C 817.210938 137.378906 816.480469 137.148438 815.726562 136.988281 C 814.972656 136.832031 814.210938 136.75 813.441406 136.75 C 812.671875 136.75 811.90625 136.832031 811.152344 136.988281 C 810.398438 137.148438 809.671875 137.378906 808.964844 137.691406 C 808.257812 138 807.59375 138.378906 806.964844 138.828125 C 806.339844 139.273438 805.765625 139.78125 805.242188 140.347656 C 803.183594 142.746094 802.148438 146.378906 802.140625 151.242188 C 802.132812 156.105469 803.160156 159.734375 805.222656 162.132812 C 805.71875 162.734375 806.277344 163.269531 806.894531 163.742188 C 807.515625 164.214844 808.183594 164.609375 808.894531 164.925781 C 809.605469 165.246094 810.34375 165.480469 811.109375 165.628906 C 811.871094 165.777344 812.644531 165.835938 813.421875 165.808594 Z M 813.421875 165.796875 " fill-opacity="1" fill-rule="nonzero"/><path fill="#494b4a" d="M 850.132812 173.921875 C 849.453125 173.953125 848.796875 173.847656 848.164062 173.601562 C 847.527344 173.355469 846.972656 172.992188 846.492188 172.507812 C 846.050781 172.011719 845.714844 171.457031 845.476562 170.835938 C 845.242188 170.214844 845.125 169.574219 845.125 168.910156 C 845.125 168.25 845.242188 167.605469 845.476562 166.988281 C 845.714844 166.367188 846.050781 165.808594 846.492188 165.316406 C 846.96875 164.828125 847.527344 164.460938 848.160156 164.214844 C 848.796875 163.964844 849.453125 163.859375 850.132812 163.890625 C 850.808594 163.859375 851.457031 163.964844 852.085938 164.214844 C 852.714844 164.460938 853.261719 164.828125 853.730469 165.316406 C 854.152344 165.820312 854.476562 166.378906 854.699219 167 C 854.925781 167.617188 855.039062 168.253906 855.039062 168.910156 C 855.039062 169.570312 854.925781 170.207031 854.699219 170.824219 C 854.476562 171.445312 854.152344 172.003906 853.730469 172.507812 C 853.261719 172.992188 852.710938 173.355469 852.082031 173.601562 C 851.457031 173.847656 850.804688 173.953125 850.132812 173.921875 Z M 850.132812 173.921875 " fill-opacity="1" fill-rule="nonzero"/><path fill="#494b4a" d="M 868.800781 174.191406 C 868.203125 174.253906 867.636719 174.15625 867.09375 173.898438 C 866.550781 173.636719 866.121094 173.253906 865.800781 172.746094 C 865.527344 172.15625 865.410156 171.542969 865.441406 170.894531 C 865.472656 170.25 865.652344 169.648438 865.976562 169.089844 L 891.035156 112.066406 C 892.007812 109.824219 893.488281 108.703125 895.515625 108.703125 C 896.433594 108.699219 897.269531 108.957031 898.027344 109.476562 C 898.914062 110.152344 899.535156 111.019531 899.886719 112.078125 L 925.03125 169.101562 C 925.359375 169.65625 925.546875 170.253906 925.59375 170.898438 C 925.644531 171.539062 925.550781 172.15625 925.3125 172.753906 C 925.015625 173.265625 924.601562 173.652344 924.074219 173.914062 C 923.542969 174.175781 922.984375 174.273438 922.398438 174.199219 C 921.40625 174.253906 920.523438 173.964844 919.753906 173.339844 C 919 172.640625 918.449219 171.808594 918.105469 170.839844 L 912.191406 157.167969 L 878.785156 157.167969 L 872.949219 170.839844 C 871.949219 173.074219 870.566406 174.191406 868.800781 174.191406 Z M 895.40625 118.082031 L 881.464844 150.925781 L 909.480469 150.925781 L 895.59375 118.082031 Z M 895.40625 118.082031 " fill-opacity="1" fill-rule="nonzero"/><path fill="#494b4a" d="M 954.707031 190.773438 C 951.519531 190.785156 948.375 190.414062 945.28125 189.652344 C 942.292969 188.9375 939.515625 187.738281 936.945312 186.054688 C 936.113281 185.644531 935.585938 184.992188 935.351562 184.09375 C 935.28125 183.726562 935.277344 183.355469 935.332031 182.980469 C 935.386719 182.609375 935.5 182.253906 935.671875 181.921875 C 935.847656 181.585938 936.070312 181.289062 936.34375 181.03125 C 936.617188 180.773438 936.925781 180.5625 937.269531 180.410156 C 937.636719 180.253906 938.015625 180.195312 938.410156 180.226562 C 938.808594 180.257812 939.171875 180.378906 939.511719 180.589844 C 941.886719 182.105469 944.4375 183.226562 947.164062 183.949219 C 949.523438 184.550781 951.921875 184.859375 954.359375 184.867188 C 963.097656 184.867188 967.472656 180.386719 967.480469 171.421875 L 967.480469 163.578125 C 966.851562 164.960938 966.027344 166.21875 965.007812 167.347656 C 963.988281 168.476562 962.820312 169.421875 961.507812 170.1875 C 958.648438 171.851562 955.566406 172.65625 952.261719 172.597656 C 950.402344 172.644531 948.574219 172.429688 946.773438 171.949219 C 944.976562 171.46875 943.285156 170.746094 941.695312 169.773438 C 940.199219 168.824219 938.863281 167.679688 937.695312 166.34375 C 936.523438 165.011719 935.5625 163.539062 934.816406 161.929688 C 933.121094 158.277344 932.316406 154.4375 932.40625 150.410156 C 932.316406 146.386719 933.121094 142.546875 934.816406 138.890625 C 935.558594 137.300781 936.515625 135.847656 937.6875 134.535156 C 938.859375 133.226562 940.195312 132.113281 941.695312 131.195312 C 943.292969 130.261719 944.992188 129.570312 946.785156 129.113281 C 948.578125 128.660156 950.402344 128.460938 952.25 128.515625 C 955.519531 128.4375 958.585938 129.1875 961.449219 130.757812 C 962.75 131.476562 963.90625 132.382812 964.917969 133.472656 C 965.929688 134.5625 966.746094 135.78125 967.367188 137.132812 L 967.367188 132.382812 C 967.367188 129.882812 968.589844 128.636719 971.007812 128.636719 C 973.429688 128.636719 974.664062 129.882812 974.664062 132.382812 L 974.664062 170.367188 C 974.664062 177.175781 972.972656 182.277344 969.597656 185.675781 C 966.222656 189.074219 961.257812 190.773438 954.707031 190.773438 Z M 953.585938 166.535156 C 954.535156 166.578125 955.480469 166.507812 956.414062 166.335938 C 957.351562 166.164062 958.253906 165.886719 959.128906 165.507812 C 960 165.128906 960.820312 164.660156 961.589844 164.09375 C 962.355469 163.53125 963.046875 162.886719 963.667969 162.164062 C 966.15625 159.253906 967.40625 155.339844 967.414062 150.421875 C 967.417969 145.507812 966.191406 141.605469 963.726562 138.710938 C 963.402344 138.371094 963.0625 138.046875 962.707031 137.738281 C 962.347656 137.429688 961.976562 137.140625 961.59375 136.871094 C 961.207031 136.601562 960.808594 136.351562 960.398438 136.121094 C 959.984375 135.894531 959.5625 135.683594 959.132812 135.5 C 958.699219 135.3125 958.257812 135.148438 957.808594 135.007812 C 957.359375 134.867188 956.90625 134.746094 956.445312 134.652344 C 955.984375 134.558594 955.519531 134.484375 955.050781 134.4375 C 954.582031 134.390625 954.113281 134.367188 953.640625 134.367188 C 953.167969 134.367188 952.699219 134.390625 952.230469 134.4375 C 951.761719 134.484375 951.296875 134.558594 950.835938 134.652344 C 950.375 134.746094 949.921875 134.867188 949.472656 135.007812 C 949.023438 135.148438 948.582031 135.3125 948.148438 135.5 C 947.71875 135.683594 947.296875 135.894531 946.882812 136.121094 C 946.472656 136.351562 946.074219 136.601562 945.6875 136.871094 C 945.300781 137.140625 944.929688 137.429688 944.574219 137.738281 C 944.21875 138.046875 943.878906 138.371094 943.554688 138.710938 C 941.089844 141.625 939.859375 145.527344 939.859375 150.421875 C 939.859375 155.316406 941.105469 159.21875 943.601562 162.132812 C 944.214844 162.855469 944.898438 163.5 945.660156 164.066406 C 946.421875 164.632812 947.234375 165.105469 948.101562 165.488281 C 948.96875 165.871094 949.871094 166.148438 950.800781 166.324219 C 951.730469 166.503906 952.671875 166.574219 953.617188 166.535156 Z M 953.585938 166.535156 " fill-opacity="1" fill-rule="nonzero"/><path fill="#494b4a" d="M 1008.457031 174.378906 C 1001.472656 174.378906 995.945312 172.328125 991.875 168.226562 C 987.804688 164.128906 985.765625 158.554688 985.765625 151.507812 C 985.683594 147.257812 986.597656 143.238281 988.511719 139.441406 C 989.355469 137.761719 990.417969 136.234375 991.691406 134.859375 C 992.96875 133.480469 994.410156 132.308594 996.019531 131.339844 C 997.699219 130.367188 999.480469 129.640625 1001.359375 129.160156 C 1003.242188 128.679688 1005.152344 128.464844 1007.089844 128.515625 C 1013.097656 128.515625 1017.804688 130.453125 1021.210938 134.296875 C 1024.617188 138.140625 1026.308594 143.453125 1026.308594 150.199219 C 1026.308594 152.082031 1025.246094 153.023438 1023.128906 153.023438 L 992.972656 153.023438 C 993.21875 158.066406 994.664062 161.910156 997.34375 164.554688 C 1000.019531 167.199219 1003.71875 168.507812 1008.457031 168.507812 C 1010.523438 168.5 1012.554688 168.242188 1014.554688 167.734375 C 1016.730469 167.175781 1018.734375 166.25 1020.570312 164.957031 C 1021.972656 164.046875 1023.136719 163.835938 1024.078125 164.417969 C 1024.535156 164.667969 1024.894531 165.015625 1025.15625 165.464844 C 1025.417969 165.914062 1025.546875 166.398438 1025.535156 166.917969 C 1025.515625 167.542969 1025.339844 168.121094 1025.003906 168.652344 C 1024.667969 169.179688 1024.222656 169.589844 1023.664062 169.875 C 1021.480469 171.417969 1019.097656 172.539062 1016.515625 173.238281 C 1013.882812 173.992188 1011.199219 174.375 1008.457031 174.378906 Z M 1007.269531 133.925781 C 1005.410156 133.832031 1003.613281 134.125 1001.878906 134.808594 C 1000.148438 135.496094 998.636719 136.507812 997.34375 137.851562 C 996.078125 139.277344 995.082031 140.875 994.351562 142.636719 C 993.621094 144.398438 993.199219 146.230469 993.085938 148.136719 L 1019.976562 148.136719 C 1019.800781 143.652344 1018.628906 140.160156 1016.472656 137.660156 C 1014.273438 135.171875 1011.214844 133.925781 1007.269531 133.925781 Z M 1007.269531 133.925781 " fill-opacity="1" fill-rule="nonzero"/><path fill="#494b4a" d="M 1040.609375 174.191406 C 1038.1875 174.191406 1036.964844 172.914062 1036.964844 170.367188 L 1036.964844 132.382812 C 1036.964844 129.878906 1038.148438 128.632812 1040.519531 128.636719 C 1042.886719 128.644531 1044.105469 129.894531 1044.171875 132.382812 L 1044.171875 136.863281 C 1044.851562 135.519531 1045.71875 134.308594 1046.777344 133.234375 C 1047.835938 132.160156 1049.03125 131.273438 1050.367188 130.578125 C 1053.183594 129.140625 1056.171875 128.441406 1059.332031 128.480469 C 1069.84375 128.480469 1075.097656 134.3125 1075.097656 145.972656 L 1075.097656 170.367188 C 1075.097656 172.914062 1073.882812 174.191406 1071.445312 174.191406 C 1069.011719 174.191406 1067.765625 172.914062 1067.714844 170.367188 L 1067.714844 146.445312 C 1067.714844 142.3125 1066.910156 139.292969 1065.304688 137.378906 C 1063.699219 135.464844 1061.132812 134.511719 1057.605469 134.511719 C 1055.8125 134.433594 1054.078125 134.71875 1052.40625 135.371094 C 1050.730469 136.019531 1049.261719 136.980469 1047.992188 138.253906 C 1046.75 139.628906 1045.816406 141.191406 1045.191406 142.9375 C 1044.566406 144.683594 1044.304688 146.484375 1044.394531 148.339844 L 1044.394531 170.367188 C 1044.367188 172.914062 1043.101562 174.191406 1040.609375 174.191406 Z M 1040.609375 174.191406 " fill-opacity="1" fill-rule="nonzero"/><path fill="#494b4a" d="M 1107.484375 174.378906 C 1105.472656 174.433594 1103.492188 174.214844 1101.542969 173.726562 C 1099.59375 173.234375 1097.746094 172.496094 1095.996094 171.5 C 1094.390625 170.546875 1092.953125 169.378906 1091.6875 168 C 1090.425781 166.617188 1089.390625 165.085938 1088.578125 163.398438 C 1086.746094 159.519531 1085.878906 155.4375 1085.980469 151.152344 C 1085.980469 144.097656 1087.890625 138.554688 1091.71875 134.523438 C 1095.542969 130.488281 1100.796875 128.484375 1107.484375 128.515625 C 1109.8125 128.535156 1112.089844 128.886719 1114.320312 129.570312 C 1116.703125 130.25 1118.859375 131.371094 1120.785156 132.929688 C 1121.261719 133.210938 1121.617188 133.601562 1121.859375 134.097656 C 1122.097656 134.59375 1122.179688 135.117188 1122.105469 135.664062 C 1122.050781 136.171875 1121.886719 136.640625 1121.613281 137.074219 C 1121.339844 137.503906 1120.984375 137.851562 1120.550781 138.117188 C 1120.054688 138.390625 1119.527344 138.492188 1118.964844 138.425781 C 1118.40625 138.355469 1117.917969 138.128906 1117.5 137.75 C 1116.128906 136.691406 1114.625 135.878906 1112.988281 135.320312 C 1111.347656 134.761719 1109.664062 134.480469 1107.933594 134.476562 C 1103.316406 134.476562 1099.761719 135.917969 1097.273438 138.800781 C 1094.789062 141.691406 1093.542969 145.828125 1093.542969 151.242188 C 1093.542969 156.652344 1094.789062 160.699219 1097.273438 163.757812 C 1099.761719 166.816406 1103.316406 168.363281 1107.933594 168.363281 C 1109.53125 168.351562 1111.097656 168.105469 1112.625 167.632812 C 1114.390625 167.066406 1116.003906 166.214844 1117.46875 165.078125 C 1117.667969 164.894531 1117.890625 164.746094 1118.140625 164.636719 C 1118.386719 164.523438 1118.648438 164.453125 1118.917969 164.425781 C 1119.1875 164.398438 1119.457031 164.414062 1119.722656 164.472656 C 1119.988281 164.527344 1120.238281 164.628906 1120.472656 164.765625 C 1120.902344 165.039062 1121.25 165.394531 1121.511719 165.835938 C 1121.773438 166.277344 1121.917969 166.753906 1121.949219 167.265625 C 1122.003906 167.796875 1121.914062 168.300781 1121.671875 168.777344 C 1121.433594 169.257812 1121.085938 169.632812 1120.628906 169.910156 C 1118.726562 171.453125 1116.601562 172.574219 1114.25 173.269531 C 1112.050781 173.980469 1109.796875 174.351562 1107.484375 174.378906 Z M 1107.484375 174.378906 " fill-opacity="1" fill-rule="nonzero"/><g clip-path="url(#759580b5c1)"><path fill="#494b4a" d="M 1141.101562 190.59375 C 1140.507812 190.65625 1139.949219 190.539062 1139.429688 190.242188 C 1138.910156 189.949219 1138.519531 189.53125 1138.265625 188.992188 C 1138.027344 188.414062 1137.917969 187.808594 1137.933594 187.183594 C 1137.949219 186.558594 1138.089844 185.960938 1138.355469 185.394531 L 1143.957031 172.824219 L 1127.148438 133.839844 C 1126.847656 133.269531 1126.699219 132.660156 1126.699219 132.015625 C 1126.699219 131.375 1126.847656 130.765625 1127.148438 130.195312 C 1127.511719 129.632812 1127.996094 129.210938 1128.605469 128.929688 C 1129.210938 128.648438 1129.847656 128.550781 1130.511719 128.636719 C 1132.214844 128.636719 1133.457031 129.613281 1134.253906 131.5625 L 1148.003906 165.179688 L 1161.855469 131.5625 C 1162.191406 130.691406 1162.707031 129.945312 1163.398438 129.320312 C 1164.117188 128.839844 1164.902344 128.628906 1165.765625 128.683594 C 1166.351562 128.621094 1166.90625 128.730469 1167.421875 129.015625 C 1167.9375 129.300781 1168.328125 129.710938 1168.589844 130.242188 C 1168.832031 130.8125 1168.949219 131.40625 1168.933594 132.027344 C 1168.917969 132.648438 1168.773438 133.234375 1168.5 133.792969 L 1145.179688 187.714844 C 1144.839844 188.597656 1144.308594 189.34375 1143.589844 189.957031 C 1142.832031 190.449219 1142.003906 190.664062 1141.101562 190.59375 Z M 1141.101562 190.59375 " fill-opacity="1" fill-rule="nonzero"/></g></svg>